<svg xmlns="http://www.w3.org/2000/svg" viewBox="0 0 1220 360" role="img" aria-labelledby="title desc">
  <title id="title">Future Pruning</title>
  <desc id="desc">If town believes I am the real Guard, even voting out one wolf during the day still lets the remaining wolf target me at night; because the Guard cannot self-protect twice in a row, town still loses.</desc>
  <style>.bg{fill:#fafafa}.title{font:700 26px ui-sans-serif,system-ui,sans-serif;fill:#111827}.sub{font:400 15px ui-sans-serif,system-ui,sans-serif;fill:#6b7280}.step{fill:#fff;stroke:#e5e7eb;stroke-width:2}.dead{fill:#fee2e2;stroke:#dc2626;stroke-width:3}.label{font:700 16px ui-sans-serif,system-ui,sans-serif;fill:#111827}.small{font:400 12px ui-sans-serif,system-ui,sans-serif;fill:#6b7280}.arrow{stroke:#6b7280;stroke-width:3;fill:none;marker-end:url(#arrow)}.x{font:800 22px ui-sans-serif,system-ui,sans-serif;fill:#991b1b}</style>
  <defs><marker id="arrow" viewBox="0 0 10 10" refX="8" refY="5" markerWidth="7" markerHeight="7" orient="auto"><path d="M0,0 L10,5 L0,10 z" fill="#6b7280"/></marker></defs>
  <rect class="bg" width="1220" height="360" rx="28"/>
  <text x="50" y="55" class="title">This World Dies in the Future</text>
  <text x="50" y="83" class="sub">It explains the present, but one more round still leaves town losing.</text>
  <rect class="step" x="45" y="155" width="220" height="92" rx="20"/>
  <text x="155" y="187" text-anchor="middle" class="label">Day</text><text x="155" y="214" text-anchor="middle" class="small">Vote out</text><text x="155" y="232" text-anchor="middle" class="small">one wolf</text>
  <path class="arrow" d="M270 201 L320 201"/>
  <rect class="step" x="325" y="155" width="240" height="92" rx="20"/>
  <text x="445" y="187" text-anchor="middle" class="label">Night</text><text x="445" y="214" text-anchor="middle" class="small">Remaining wolf</text><text x="445" y="232" text-anchor="middle" class="small">kills me</text>
  <path class="arrow" d="M570 201 L620 201"/>
  <rect class="step" x="625" y="155" width="260" height="92" rx="20"/>
  <text x="755" y="187" text-anchor="middle" class="label">No repeat self-protect</text><text x="755" y="214" text-anchor="middle" class="small">I cannot</text><text x="755" y="232" text-anchor="middle" class="small">stop the kill</text>
  <path class="arrow" d="M890 201 L940 201"/>
  <rect class="dead" x="945" y="155" width="230" height="92" rx="20"/>
  <text x="1060" y="187" text-anchor="middle" class="label">Town still loses</text><text x="1060" y="225" text-anchor="middle" class="x">×</text>
</svg>
