<svg xmlns="http://www.w3.org/2000/svg" viewBox="0 0 1080 320" role="img" aria-labelledby="title desc">
  <title id="title">Future Pruning</title>
  <desc id="desc">If town believes I am the real Guard, even voting out one wolf during the day still lets the remaining wolf target me at night; because the Guard cannot self-protect twice in a row, town still loses.</desc>
  <style>.bg{fill:#fafafa}.title{font:700 26px ui-sans-serif,system-ui,sans-serif;fill:#111827}.sub{font:400 15px ui-sans-serif,system-ui,sans-serif;fill:#6b7280}.step{fill:#fff;stroke:#e5e7eb;stroke-width:2}.dead{fill:#fee2e2;stroke:#dc2626;stroke-width:3}.label{font:700 17px ui-sans-serif,system-ui,sans-serif;fill:#111827}.small{font:400 12px ui-sans-serif,system-ui,sans-serif;fill:#6b7280}.arrow{stroke:#6b7280;stroke-width:3;fill:none;marker-end:url(#arrow)}.x{font:800 22px ui-sans-serif,system-ui,sans-serif;fill:#991b1b}</style>
  <defs><marker id="arrow" viewBox="0 0 10 10" refX="8" refY="5" markerWidth="7" markerHeight="7" orient="auto"><path d="M0,0 L10,5 L0,10 z" fill="#6b7280"/></marker></defs>
  <rect class="bg" width="1080" height="320" rx="28"/>
  <text x="50" y="55" class="title">This World Dies in the Future</text>
  <text x="50" y="83" class="sub">It explains the present, but one more round still leaves town losing.</text>
  <rect class="step" x="45" y="150" width="200" height="78" rx="20"/>
  <text x="145" y="181" text-anchor="middle" class="label">Day</text><text x="145" y="206" text-anchor="middle" class="small">Vote out one wolf</text>
  <path class="arrow" d="M250 189 L290 189"/>
  <rect class="step" x="295" y="150" width="220" height="78" rx="20"/>
  <text x="405" y="181" text-anchor="middle" class="label">Night</text><text x="405" y="206" text-anchor="middle" class="small">Remaining wolf kills me</text>
  <path class="arrow" d="M520 189 L560 189"/>
  <rect class="step" x="565" y="150" width="225" height="78" rx="20"/>
  <text x="677" y="181" text-anchor="middle" class="label">No repeat self-protect</text><text x="677" y="206" text-anchor="middle" class="small">I cannot stop the kill</text>
  <path class="arrow" d="M795 189 L835 189"/>
  <rect class="dead" x="840" y="150" width="195" height="78" rx="20"/>
  <text x="937" y="181" text-anchor="middle" class="label">Town still loses</text><text x="937" y="206" text-anchor="middle" class="x">×</text>
</svg>
